<?xml version="1.0" encoding="UTF-8" standalone="no"?>
<!-- Created with Inkscape (http://www.inkscape.org/) -->

<svg
   xmlns:dc="http://purl.org/dc/elements/1.1/"
   xmlns:cc="http://creativecommons.org/ns#"
   xmlns:rdf="http://www.w3.org/1999/02/22-rdf-syntax-ns#"
   xmlns:svg="http://www.w3.org/2000/svg"
   xmlns="http://www.w3.org/2000/svg"
   xmlns:sodipodi="http://sodipodi.sourceforge.net/DTD/sodipodi-0.dtd"
   xmlns:inkscape="http://www.inkscape.org/namespaces/inkscape"
   version="1.0"
   width="1000"
   height="1000"
   id="svg5496"
   sodipodi:version="0.32"
   inkscape:version="0.48.2 r9819"
   sodipodi:docname="左二重丸傍点.emf"
   inkscape:output_extension="org.inkscape.output.svg.inkscape">
  <metadata
     id="metadata5594">
    <rdf:RDF>
      <cc:Work
         rdf:about="">
        <dc:format>image/svg+xml</dc:format>
        <dc:type
           rdf:resource="http://purl.org/dc/dcmitype/StillImage" />
        <dc:title></dc:title>
      </cc:Work>
    </rdf:RDF>
  </metadata>
  <sodipodi:namedview
     inkscape:window-height="1178"
     inkscape:window-width="1717"
     inkscape:pageshadow="2"
     inkscape:pageopacity="0.0"
     borderopacity="1.0"
     bordercolor="#666666"
     pagecolor="#ffffff"
     id="base"
     showgrid="false"
     showguides="true"
     inkscape:guide-bbox="true"
     inkscape:zoom="0.454"
     inkscape:cx="224.6696"
     inkscape:cy="500"
     inkscape:window-x="195"
     inkscape:window-y="-8"
     inkscape:current-layer="text2824"
     inkscape:window-maximized="1">
    <sodipodi:guide
       orientation="horizontal"
       position="200"
       id="guide5596" />
  </sodipodi:namedview>
  <defs
     id="defs5498">
    <inkscape:perspective
       sodipodi:type="inkscape:persp3d"
       inkscape:vp_x="0 : 500 : 1"
       inkscape:vp_y="0 : 1000 : 0"
       inkscape:vp_z="1000 : 500 : 1"
       inkscape:persp3d-origin="500 : 333.33333 : 1"
       id="perspective2822" />
  </defs>
  <g
     id="layer1" />
  <g
     style="font-size:500px;font-style:normal;font-variant:normal;font-weight:normal;font-stretch:normal;text-align:start;line-height:100%;writing-mode:lr-tb;text-anchor:start;fill:#000000;fill-opacity:1;stroke:none;font-family:MS PMincho;-inkscape-font-specification:MS PMincho"
     id="text2824">
    <path
       sodipodi:type="inkscape:offset"
       inkscape:radius="13.215859"
       inkscape:original="M 777.40625 265.15625 C 714.90606 265.15664 662.15612 286.62538 619.1875 329.59375 C 581.42703 367.35446 562.56246 417.50024 562.5625 480 C 562.56246 542.50012 581.42703 592.61466 619.1875 630.375 C 662.15612 673.34374 714.90606 694.84371 777.40625 694.84375 C 839.90594 694.84371 892.62464 673.34374 935.59375 630.375 C 973.35372 592.61466 992.24953 542.50012 992.25 480 C 992.24953 417.50024 973.35372 367.35446 935.59375 329.59375 C 892.62464 286.62538 839.90594 265.15664 777.40625 265.15625 z M 777.40625 282.71875 C 834.69761 282.71913 882.87464 302.25036 921.9375 341.3125 C 957.09332 376.46904 974.65581 422.70857 974.65625 480 C 974.65581 537.29179 957.09332 583.50008 921.9375 618.65625 C 882.87464 657.71876 834.69761 677.24999 777.40625 677.25 C 720.11439 677.24999 671.93735 657.71876 632.875 618.65625 C 597.71868 583.50008 580.12495 537.29179 580.125 480 C 580.12495 422.70857 597.71868 376.46904 632.875 341.3125 C 671.93735 302.25036 720.11439 282.71913 777.40625 282.71875 z M 777.40625 358.90625 C 743.55187 358.90655 714.90606 370.62529 691.46875 394.0625 C 668.03111 417.50024 656.31237 446.14605 656.3125 480 C 656.31237 513.85431 668.03111 542.50012 691.46875 565.9375 C 714.90606 589.37507 743.55187 601.09381 777.40625 601.09375 C 811.26013 601.09381 839.90594 589.37507 863.34375 565.9375 C 886.78089 542.50012 898.49963 513.85431 898.5 480 C 898.49963 446.14605 886.78089 417.50024 863.34375 394.0625 C 839.90594 370.62529 811.26013 358.90655 777.40625 358.90625 z M 777.40625 376.46875 C 806.0518 376.46904 830.1247 386.25027 849.65625 405.78125 C 870.48924 426.61482 880.9059 451.35437 880.90625 480 C 880.9059 508.64598 870.48924 533.38554 849.65625 554.21875 C 830.1247 573.75009 806.0518 583.50008 777.40625 583.5 C 748.76019 583.50008 724.65606 573.75009 705.125 554.21875 C 684.29151 533.38554 673.87486 508.64598 673.875 480 C 673.87486 451.35437 684.29151 426.61482 705.125 405.78125 C 724.65606 386.25027 748.76019 376.46904 777.40625 376.46875 z "
       id="path3300"
       d="m 777.40625,251.9375 c -65.52656,4.1e-4 -122.32615,23.07642 -167.5625,68.3125 -40.34094,40.3412 -60.50004,94.5909 -60.5,159.75 -4e-5,65.15944 20.16158,119.38047 60.5,159.71875 45.23409,45.23421 102.03149,68.34371 167.5625,68.34375 65.53053,-4e-5 122.29897,-23.11186 167.53125,-68.34375 40.33531,-40.3357 60.5308,-94.55496 60.5313,-159.71875 -5e-4,-65.16344 -20.19347,-119.41138 -60.5313,-159.75 -45.23454,-45.23376 -102.00516,-68.31209 -167.53125,-68.3125 z m 0,44 c 54.28779,3.6e-4 98.40895,17.94088 135.1875,54.71875 32.61498,32.61565 48.84333,74.75312 48.84375,129.34375 -4.2e-4,54.59101 -16.22606,96.69448 -48.84375,129.3125 -36.77855,36.77822 -80.89976,54.71874 -135.1875,54.71875 -54.28827,-10e-6 -98.4095,-17.9406 -135.1875,-54.71875 C 609.59783,576.69172 593.3437,534.58615 593.34375,480 c -5e-5,-54.58577 16.25679,-96.72534 48.875,-129.34375 36.77801,-36.77781 80.89918,-54.71839 135.1875,-54.71875 z m 0,49.75 c -36.90411,3.3e-4 -69.5942,13.34431 -95.28125,39.03125 -25.68733,25.68744 -39.03139,58.37744 -39.03125,95.28125 -1.4e-4,36.90414 13.34384,69.59413 39.03125,95.28125 25.68706,25.68734 58.37706,39.03132 95.28125,39.03125 36.90373,7e-5 69.59375,-13.34401 95.28125,-39.03125 C 898.37435,549.59414 911.71835,516.90403 911.71875,480 911.71835,443.0963 898.37427,410.40618 872.6875,384.71875 847,359.03191 814.3099,345.68783 777.40625,345.6875 z m 0,44 c 25.63719,2.6e-4 45.65401,8.18576 62.90625,25.4375 18.69152,18.69204 27.37469,39.43314 27.375,64.875 -3.1e-4,25.44225 -8.68356,46.18336 -27.375,64.875 -17.24725,17.24707 -37.25955,25.40632 -62.90625,25.40625 -25.64727,7e-5 -45.69579,-8.16429 -62.9375,-25.40625 -18.69188,-18.69162 -27.37512,-39.43288 -27.375,-64.875 -1.2e-4,-25.44173 8.68304,-46.18297 27.375,-64.875 17.2467,-17.24663 37.29975,-25.43724 62.9375,-25.4375 z"
       transform="translate(-10,0)" />
  </g>
</svg>
