<?xml version="1.0" encoding="UTF-8" standalone="no"?>
<!-- Created with Inkscape (http://www.inkscape.org/) -->

<svg
   xmlns:dc="http://purl.org/dc/elements/1.1/"
   xmlns:cc="http://creativecommons.org/ns#"
   xmlns:rdf="http://www.w3.org/1999/02/22-rdf-syntax-ns#"
   xmlns:svg="http://www.w3.org/2000/svg"
   xmlns="http://www.w3.org/2000/svg"
   xmlns:sodipodi="http://sodipodi.sourceforge.net/DTD/sodipodi-0.dtd"
   xmlns:inkscape="http://www.inkscape.org/namespaces/inkscape"
   version="1.0"
   width="1000"
   height="1000"
   id="svg5496"
   sodipodi:version="0.32"
   inkscape:version="0.48.2 r9819"
   sodipodi:docname="左波線.emf"
   inkscape:output_extension="org.inkscape.output.svg.inkscape">
  <metadata
     id="metadata5594">
    <rdf:RDF>
      <cc:Work
         rdf:about="">
        <dc:format>image/svg+xml</dc:format>
        <dc:type
           rdf:resource="http://purl.org/dc/dcmitype/StillImage" />
        <dc:title></dc:title>
      </cc:Work>
    </rdf:RDF>
  </metadata>
  <sodipodi:namedview
     inkscape:window-height="1178"
     inkscape:window-width="1717"
     inkscape:pageshadow="2"
     inkscape:pageopacity="0.0"
     borderopacity="1.0"
     bordercolor="#666666"
     pagecolor="#ffffff"
     id="base"
     showgrid="false"
     showguides="true"
     inkscape:guide-bbox="true"
     inkscape:zoom="0.928"
     inkscape:cx="1327.0855"
     inkscape:cy="469.9035"
     inkscape:window-x="195"
     inkscape:window-y="-8"
     inkscape:current-layer="text2824"
     inkscape:window-maximized="1"
     inkscape:snap-page="true"
     inkscape:snap-grids="false"
     inkscape:snap-to-guides="false">
    <sodipodi:guide
       orientation="horizontal"
       position="200"
       id="guide5596" />
  </sodipodi:namedview>
  <defs
     id="defs5498">
    <inkscape:perspective
       sodipodi:type="inkscape:persp3d"
       inkscape:vp_x="0 : 500 : 1"
       inkscape:vp_y="0 : 1000 : 0"
       inkscape:vp_z="1000 : 500 : 1"
       inkscape:persp3d-origin="500 : 333.33333 : 1"
       id="perspective2822" />
  </defs>
  <g
     id="layer1" />
  <g
     transform="scale(1.2647611,0.79066315)"
     style="font-size:1272.83447266px;font-style:normal;font-variant:normal;font-weight:normal;font-stretch:normal;text-align:start;line-height:100%;writing-mode:lr-tb;text-anchor:start;fill:#000000;fill-opacity:1;stroke:none;font-family:NSimSun;-inkscape-font-specification:NSimSun"
     id="text2824">
    <path
       d="M 790.83827,35.914666 C 728.10894,90.531068 688.14473,143.54007 727.87332,194.94185 c 39.72833,51.40357 83.46962,101.19991 45.83228,149.38917 -37.63763,48.19075 -99.30936,100.3966 -61.67173,156.61766 37.63734,56.22227 100.89039,113.24713 63.25305,171.07471 -37.63763,57.82843 -102.47201,114.05011 -64.83438,168.66519 37.63734,54.61559 104.05305,103.6088 66.41571,146.97967 -37.63763,43.37115 -95.61087,88.34825 -60.06422,134.93215 35.54639,46.5837 78.21601,93.9703 48.94255,142.1607 l -44.14052,0 c 33.4555,-44.9775 -13.44845,-91.5613 -48.99491,-139.7511 -35.54661,-48.1902 27.70644,-93.9706 63.25305,-137.34175 C 771.41066,944.29738 702.87779,895.30417 669.42229,840.68858 635.96667,786.0735 702.38238,729.85182 735.838,672.02339 769.2935,614.19581 706.04045,557.17095 672.58495,500.94868 639.12933,444.72762 699.21972,392.52177 732.67534,344.33102 766.13084,296.14176 720.80822,247.14859 685.26176,197.35136 649.71515,147.5559 690.24142,93.743734 740.42483,35.914666 z"
       id="path3772"
       inkscape:connector-curvature="0"
       sodipodi:nodetypes="ccscssssccssssscccc" />
  </g>
</svg>
